<svg width="30" height="30" viewBox="0 0 30 30" fill="none" xmlns="http://www.w3.org/2000/svg">
<path d="M1.99993 2.10702C-0.343842 4.5415 0.135848 7.1276 0.135848 14.9841C0.135848 21.5083 -1.00248 28.0488 4.95511 29.5885C6.81546 30.0669 23.2989 30.0669 25.1567 29.586C27.6372 28.946 29.6554 26.934 29.9313 23.4259C29.9698 22.9362 29.9698 7.04061 29.93 6.54104C29.6367 2.80418 27.3365 0.650553 24.3055 0.214358C23.6108 0.113698 23.4716 0.083873 19.9075 0.0776594C7.26532 0.083873 4.49406 -0.479078 1.99993 2.10702Z" fill="url(#paint0_linear)"/>
<path fill-rule="evenodd" clip-rule="evenodd" d="M15.0437 3.97855C14.6797 3.97854 14.3172 3.97593 13.9574 3.97333C9.85822 3.94373 6.11649 3.91671 4.61213 7.77754C4.01479 9.31043 4.0219 11.2479 4.03166 13.9037C4.03294 14.2536 4.03427 14.616 4.03427 14.9915C4.03427 15.2966 4.03322 15.5997 4.03217 15.8998C4.02354 18.385 4.0156 20.6686 4.61213 22.2043C6.11292 26.067 9.8832 26.0395 13.9606 26.0098L13.9613 26.0097C14.3201 26.0071 14.6813 26.0045 15.0435 26.0045C15.4218 26.0045 15.8011 26.0079 16.1795 26.0114L16.1798 26.0114C20.1233 26.0472 23.9647 26.0822 25.4761 22.2043C26.0738 20.658 26.0666 18.7479 26.0567 16.0931C26.0554 15.7394 26.054 15.3725 26.054 14.9915C26.054 14.5795 26.0562 14.1815 26.0583 13.7968C26.0781 10.1636 26.0916 7.71207 24.2048 5.82648C22.3108 3.9324 19.8183 3.94923 16.3004 3.97298C15.8953 3.97572 15.4766 3.97854 15.0437 3.97855ZM15.8299 5.9514L15.83 5.9514C23.6227 5.87801 24.6256 5.86856 24.0085 19.438C23.7952 24.1061 20.5482 24.0704 16.3505 24.0243C15.9251 24.0197 15.49 24.0149 15.0472 24.0149C6.27365 24.0149 6.02138 23.7639 6.02138 14.9866C6.02138 6.10733 6.7173 5.96815 14.0593 5.96069V5.96318C14.6852 5.96218 15.2748 5.95663 15.8299 5.9514ZM19.603 9.11222C19.603 8.38275 20.1946 7.79121 20.9241 7.79121C21.6535 7.79121 22.2451 8.38275 22.2451 9.11222C22.2451 9.8417 21.6535 10.4332 20.9241 10.4332C20.1946 10.4332 19.603 9.8417 19.603 9.11222ZM15.046 9.33591C11.923 9.33591 9.39163 11.8686 9.39163 14.9915C9.39163 18.1145 11.923 20.6459 15.046 20.6459C18.1689 20.6459 20.6991 18.1145 20.6991 14.9915C20.6991 11.8686 18.1689 9.33591 15.046 9.33591ZM15.046 11.3205C19.8988 11.3205 19.905 18.6625 15.046 18.6625C10.1944 18.6625 10.187 11.3205 15.046 11.3205Z" fill="white"/>
<defs>
<linearGradient id="paint0_linear" x1="15.0485" y1="40.996" x2="41.0446" y2="15.0133" gradientUnits="userSpaceOnUse">
<stop stop-color="#FFDD55"/>
<stop offset="0.5" stop-color="#FF543E"/>
<stop offset="1" stop-color="#C837AB"/>
</linearGradient>
</defs>
</svg>
