<svg width="18" height="16" viewBox="0 0 18 16" fill="none" xmlns="http://www.w3.org/2000/svg">
<path fill-rule="evenodd" clip-rule="evenodd" d="M12.9327 1C12.8243 1 12.7171 1.00389 12.6091 1.01128C10.988 1.12756 10.0648 1.92206 9 2.65783C7.93522 1.92167 7.01164 1.12717 5.39087 1.01128C5.28327 1.0035 5.17527 1 5.06727 1C3.7753 1 2.45332 1.54756 1.67253 2.63683C0.297759 4.55367 1.25334 7.29922 2.54852 9.26117C4.69048 12.5049 9 15 9 15C9 15 13.3091 12.5049 15.4515 9.26117C16.7467 7.29922 17.7022 4.55367 16.3275 2.63683C15.5467 1.54756 14.2247 1 12.9327 1Z" fill="#555555" stroke="#FF256F"/>
</svg>
