<svg width="16" height="16" viewBox="0 0 16 16" fill="none" xmlns="http://www.w3.org/2000/svg">
<path opacity="0.6" fill-rule="evenodd" clip-rule="evenodd" d="M16 15.0394L11.2546 10.237C12.0345 9.16763 12.5026 7.84481 12.5026 6.40678C12.5026 2.86901 9.70353 0 6.25129 0C2.79906 0 0 2.86837 0 6.40678C0 9.9452 2.79906 12.8142 6.25129 12.8142C7.67498 12.8142 9.30196 12.0213 10.3529 11.2002L15.0588 16L16 15.0394ZM1.10808 6.40678C1.10808 3.50066 3.41584 1.13531 6.25129 1.13531C9.08675 1.13531 11.3945 3.50066 11.3945 6.40678C11.3945 9.31355 9.08675 11.6783 6.25129 11.6783C3.41584 11.6783 1.10808 9.31355 1.10808 6.40678Z" fill="#8E8E93"/>
</svg>
