<svg width="14" height="16" viewBox="0 0 14 16" fill="none" xmlns="http://www.w3.org/2000/svg">
<path fill-rule="evenodd" clip-rule="evenodd" d="M14 2.5C14 3.88071 12.8807 5 11.5 5C10.9569 5 10.4543 4.82684 10.0443 4.53272L4.99967 7.45902C4.99989 7.47266 5 7.48632 5 7.5C5 7.75076 4.96308 7.99291 4.89438 8.22128L10.2556 11.3312C10.622 11.1205 11.0469 11 11.5 11C12.8807 11 14 12.1193 14 13.5C14 14.8807 12.8807 16 11.5 16C10.1193 16 9 14.8807 9 13.5C9 13.2717 9.03061 13.0505 9.08795 12.8403L3.68113 9.70394C3.32939 9.89284 2.92721 10 2.5 10C1.11929 10 0 8.88071 0 7.5C0 6.11929 1.11929 5 2.5 5C3.17904 5 3.79485 5.27073 4.24539 5.71013L9.03695 2.93063C9.01266 2.79074 9 2.64685 9 2.5C9 1.11929 10.1193 0 11.5 0C12.8807 0 14 1.11929 14 2.5Z" fill="white"/>
</svg>
