<svg width="16" height="18" viewBox="0 0 16 18" fill="none" xmlns="http://www.w3.org/2000/svg">
<path fill-rule="evenodd" clip-rule="evenodd" d="M15 3.5C15 4.88071 13.8807 6 12.5 6C11.9569 6 11.4543 5.82684 11.0443 5.53272L5.99967 8.45902C5.99989 8.47266 6 8.48632 6 8.5C6 8.75076 5.96308 8.99291 5.89438 9.22128L11.2556 12.3312C11.622 12.1205 12.0469 12 12.5 12C13.8807 12 15 13.1193 15 14.5C15 15.8807 13.8807 17 12.5 17C11.1193 17 10 15.8807 10 14.5C10 14.2717 10.0306 14.0505 10.0879 13.8403L4.68113 10.7039C4.32939 10.8928 3.92721 11 3.5 11C2.11929 11 1 9.88071 1 8.5C1 7.11929 2.11929 6 3.5 6C4.17904 6 4.79485 6.27073 5.24539 6.71013L10.037 3.93063C10.0127 3.79074 10 3.64685 10 3.5C10 2.11929 11.1193 1 12.5 1C13.8807 1 15 2.11929 15 3.5Z" fill="#969696"/>
<path d="M11.0443 5.53272L11.3358 5.12645L11.0731 4.938L10.7934 5.10022L11.0443 5.53272ZM5.99967 8.45902L5.74879 8.02652L5.49503 8.17372L5.49974 8.46705L5.99967 8.45902ZM5.89438 9.22128L5.41557 9.07725L5.30177 9.45556L5.64349 9.65378L5.89438 9.22128ZM11.2556 12.3312L11.0047 12.7637L11.2545 12.9086L11.5048 12.7647L11.2556 12.3312ZM10.0879 13.8403L10.5703 13.972L10.6716 13.6009L10.3388 13.4078L10.0879 13.8403ZM4.68113 10.7039L4.93202 10.2714L4.69052 10.1314L4.44457 10.2634L4.68113 10.7039ZM5.24539 6.71013L4.89628 7.06808L5.16798 7.33307L5.49627 7.14263L5.24539 6.71013ZM10.037 3.93063L10.2878 4.36314L10.5892 4.18834L10.5296 3.84511L10.037 3.93063ZM12.5 6.5C14.1569 6.5 15.5 5.15685 15.5 3.5H14.5C14.5 4.60457 13.6046 5.5 12.5 5.5V6.5ZM10.7529 5.93899C11.245 6.29203 11.8489 6.5 12.5 6.5V5.5C12.0649 5.5 11.6636 5.36164 11.3358 5.12645L10.7529 5.93899ZM6.25056 8.89152L11.2952 5.96522L10.7934 5.10022L5.74879 8.02652L6.25056 8.89152ZM6.5 8.5C6.5 8.48363 6.49987 8.4673 6.49961 8.451L5.49974 8.46705C5.49991 8.47801 5.5 8.489 5.5 8.5H6.5ZM6.37318 9.36532C6.45579 9.09073 6.5 8.80008 6.5 8.5H5.5C5.5 8.70145 5.47037 8.89508 5.41557 9.07725L6.37318 9.36532ZM5.64349 9.65378L11.0047 12.7637L11.5065 11.8987L6.14526 8.78878L5.64349 9.65378ZM11.5048 12.7647C11.7975 12.5964 12.1367 12.5 12.5 12.5V11.5C11.9572 11.5 11.4466 11.6446 11.0064 11.8978L11.5048 12.7647ZM12.5 12.5C13.6046 12.5 14.5 13.3954 14.5 14.5H15.5C15.5 12.8431 14.1569 11.5 12.5 11.5V12.5ZM14.5 14.5C14.5 15.6046 13.6046 16.5 12.5 16.5V17.5C14.1569 17.5 15.5 16.1569 15.5 14.5H14.5ZM12.5 16.5C11.3954 16.5 10.5 15.6046 10.5 14.5H9.5C9.5 16.1569 10.8431 17.5 12.5 17.5V16.5ZM10.5 14.5C10.5 14.3165 10.5246 14.1396 10.5703 13.972L9.60558 13.7087C9.53665 13.9614 9.5 14.2268 9.5 14.5H10.5ZM10.3388 13.4078L4.93202 10.2714L4.43025 11.1364L9.83706 14.2728L10.3388 13.4078ZM3.5 11.5C4.01178 11.5 4.49501 11.3714 4.9177 11.1444L4.44457 10.2634C4.16376 10.4142 3.84264 10.5 3.5 10.5V11.5ZM0.5 8.5C0.5 10.1569 1.84315 11.5 3.5 11.5V10.5C2.39543 10.5 1.5 9.60457 1.5 8.5H0.5ZM3.5 5.5C1.84315 5.5 0.5 6.84315 0.5 8.5H1.5C1.5 7.39543 2.39543 6.5 3.5 6.5V5.5ZM5.59449 6.35218C5.05435 5.82539 4.31467 5.5 3.5 5.5V6.5C4.04341 6.5 4.53535 6.71606 4.89628 7.06808L5.59449 6.35218ZM9.78607 3.49813L4.9945 6.27763L5.49627 7.14263L10.2878 4.36314L9.78607 3.49813ZM9.5 3.5C9.5 3.67564 9.51515 3.84814 9.54432 4.01616L10.5296 3.84511C10.5102 3.73333 10.5 3.61805 10.5 3.5H9.5ZM12.5 0.5C10.8431 0.5 9.5 1.84315 9.5 3.5H10.5C10.5 2.39543 11.3954 1.5 12.5 1.5V0.5ZM15.5 3.5C15.5 1.84315 14.1569 0.5 12.5 0.5V1.5C13.6046 1.5 14.5 2.39543 14.5 3.5H15.5Z" fill="#FF256F"/>
</svg>
