<svg width="19" height="18" viewBox="0 0 19 18" fill="none" xmlns="http://www.w3.org/2000/svg">
<path d="M17.0605 6.37384L12.1492 6.15539L10.4195 1.6267C10.2755 1.24991 9.90945 1 9.49917 1C9.09085 1 8.72416 1.24991 8.57961 1.6267L6.85048 6.15539L1.93794 6.37384C1.52962 6.39179 1.1747 6.65774 1.04831 7.0408C0.921295 7.42395 1.05035 7.84431 1.36948 8.09544L5.2132 11.1126L3.90613 15.7765C3.79807 16.1647 3.94457 16.5787 4.2761 16.8158C4.60825 17.0523 5.05368 17.0618 5.39566 16.8401L9.49935 14.176L13.6044 16.8401C13.9463 17.0618 14.3917 17.0522 14.7232 16.8158C15.0548 16.5787 15.2013 16.1647 15.0931 15.7765L13.7867 11.1126L17.6298 8.09544C17.9503 7.84431 18.0786 7.42395 17.9515 7.0408C17.8251 6.65774 17.4694 6.39179 17.0605 6.37384Z" fill="#666666" stroke="#FF256F"/>
</svg>
