<svg width="30" height="30" viewBox="0 0 30 30" fill="none" xmlns="http://www.w3.org/2000/svg">
<path d="M26.25 30H3.75C1.68 30 0 28.32 0 26.25V3.75C0 1.68 1.68 0 3.75 0H26.25C28.32 0 30 1.68 30 3.75V26.25C30 28.32 28.32 30 26.25 30Z" fill="#1D9BF0"/>
<path d="M11.5198 22.62C18.5923 22.62 22.4623 16.755 22.4623 11.6775C22.4623 11.5125 22.4623 11.3475 22.4548 11.1825C23.2048 10.6425 23.8573 9.96 24.3748 9.1875C23.6848 9.495 22.9423 9.6975 22.1623 9.795C22.9573 9.3225 23.5648 8.565 23.8573 7.665C23.1148 8.1075 22.2898 8.4225 21.4123 8.595C20.7073 7.845 19.7098 7.38 18.6073 7.38C16.4848 7.38 14.7598 9.10501 14.7598 11.2275C14.7598 11.5275 14.7973 11.82 14.8573 12.105C11.6623 11.9475 8.82732 10.41 6.92982 8.085C6.59982 8.655 6.41232 9.31501 6.41232 10.02C6.41232 11.355 7.09482 12.5325 8.12232 13.2225C7.49232 13.2 6.89982 13.0275 6.38232 12.7425C6.38232 12.7575 6.38232 12.7725 6.38232 12.795C6.38232 14.655 7.70982 16.215 9.46482 16.5675C9.14232 16.6575 8.80482 16.7025 8.45232 16.7025C8.20482 16.7025 7.96482 16.68 7.73232 16.635C8.21982 18.165 9.64482 19.275 11.3248 19.305C10.0048 20.34 8.34732 20.955 6.54732 20.955C6.23982 20.955 5.93232 20.94 5.63232 20.9025C7.32732 21.9825 9.35232 22.62 11.5198 22.62Z" fill="white"/>
</svg>
